<svg width="21" height="21" viewBox="0 0 21 21" fill="none" xmlns="http://www.w3.org/2000/svg">
<path d="M19.902 0H1.09845C0.792717 0.0276182 0.509041 0.169868 0.305084 0.397834C0.101127 0.6258 -0.00780291 0.922374 0.000435404 1.22727V19.7727C-0.00780291 20.0776 0.101127 20.3742 0.305084 20.6022C0.509041 20.8301 0.792717 20.9724 1.09845 21H11.1179V12.8182H8.37281V9.68182H11.1179V7.36364C11.0282 6.35485 11.3356 5.3508 11.9754 4.56249C12.6153 3.77418 13.5378 3.26299 14.5492 3.13636H15.2354C16.0613 3.11378 16.8877 3.15939 17.7059 3.27273V6.13636H15.9217C14.5492 6.13636 14.4119 6.81818 14.4119 7.63636V9.68182H17.5687L17.1569 12.8182H14.4119V20.8636H19.7647C20.0716 20.8718 20.3701 20.7636 20.5996 20.561C20.829 20.3583 20.9722 20.0765 21 19.7727V1.09091C20.9807 0.807886 20.8589 0.541395 20.657 0.34081C20.4551 0.140225 20.1869 0.0191442 19.902 0Z" fill="#959DA5"/>
</svg>
