<svg width="59" height="59" viewBox="0 0 59 59" fill="none" xmlns="http://www.w3.org/2000/svg">
<path d="M59 53.1004C59 54.2672 58.654 55.4078 58.0057 56.378C57.3574 57.3482 56.4359 58.1044 55.3578 58.5509C54.2798 58.9974 53.0935 59.1143 51.949 58.8866C50.8045 58.659 49.7532 58.0971 48.9281 57.272C48.1029 56.447 47.541 55.3958 47.3134 54.2513C47.0857 53.1069 47.2026 51.9207 47.6491 50.8427C48.0957 49.7647 48.8519 48.8433 49.8221 48.195C50.7924 47.5468 51.9331 47.2008 53.1 47.2008C54.6648 47.2008 56.1655 47.8223 57.2719 48.9287C58.3784 50.0351 59 51.5357 59 53.1004ZM5.9 50.1506C7.06691 50.1506 8.20761 49.8046 9.17786 49.1563C10.1481 48.508 10.9043 47.5866 11.3509 46.5086C11.7974 45.4306 11.9143 44.2444 11.6866 43.1C11.459 41.9556 10.8971 40.9044 10.0719 40.0793C9.2468 39.2542 8.19552 38.6923 7.05103 38.4647C5.90654 38.237 4.72025 38.3539 3.64217 38.8004C2.56408 39.2469 1.64263 40.0031 0.994329 40.9733C0.346029 41.9435 0 43.0841 0 44.2509C0 45.8156 0.621605 47.3162 1.72807 48.4226C2.83453 49.529 4.33522 50.1506 5.9 50.1506ZM53.1 0.00377825C51.9331 0.00377825 50.7924 0.349785 49.8221 0.998044C48.8519 1.6463 48.0957 2.5677 47.6491 3.64571C47.2026 4.72373 47.0857 5.90994 47.3134 7.05436C47.541 8.19877 48.1029 9.24999 48.9281 10.0751C49.7532 10.9001 50.8045 11.462 51.949 11.6897C53.0935 11.9173 54.2798 11.8005 55.3578 11.3539C56.4359 10.9074 57.3574 10.1512 58.0057 9.18105C58.654 8.21087 59 7.07023 59 5.9034C59 4.33872 58.3784 2.83813 57.2719 1.73174C56.1655 0.625344 54.6648 0.00377825 53.1 0.00377825ZM10.3678 0.13003C8.09886 -0.263193 5.76602 0.243363 3.86456 1.54215C1.9631 2.84093 0.642768 4.82965 0.183908 7.08607C-0.274952 9.34248 0.163793 11.6889 1.40699 13.6271C2.65018 15.5653 4.59992 16.9426 6.84223 17.4667C9.05086 17.992 11.3775 17.6274 13.3195 16.4516L16.8271 19.959C17.5899 20.7188 18.1279 21.6746 18.3818 22.7208C18.6357 23.7671 18.5957 24.8631 18.2661 25.8881C17.8901 27.0558 17.699 28.2751 17.7 29.5019C17.7 29.8582 17.7169 30.2101 17.7507 30.5576C17.8391 31.622 17.6296 32.69 17.1457 33.6421C16.6618 34.5943 15.9226 35.3931 15.0108 35.9493L13.2673 37.039C14.3043 38.1114 15.0964 39.396 15.589 40.8041L17.3708 39.6905C18.2929 39.1175 19.3555 38.8106 20.4412 38.8036C21.5268 38.7966 22.5933 39.0899 23.5227 39.651C25.3286 40.7329 27.3948 41.3033 29.5 41.3011C30.727 41.3022 31.9467 41.1112 33.1146 40.7351C34.1396 40.4055 35.2357 40.3655 36.282 40.6193C37.3283 40.8732 38.2842 41.4111 39.0441 42.1737L44.422 47.5512C45.2274 46.2954 46.2946 45.2283 47.5505 44.4229L42.1729 39.0454C41.4102 38.2856 40.8721 37.3298 40.6182 36.2835C40.3643 35.2373 40.4043 34.1412 40.7339 33.1163C41.4887 30.7654 41.4887 28.2372 40.7339 25.8863C40.4043 24.8614 40.3643 23.7653 40.6182 22.7191C40.8721 21.6728 41.4102 20.717 42.1729 19.9572L47.5505 14.5797C46.2946 13.7743 45.2274 12.7072 44.422 11.4514L39.0441 16.8286C38.2842 17.5913 37.3284 18.1293 36.2821 18.3832C35.2358 18.6371 34.1396 18.5971 33.1146 18.2675C30.7636 17.5128 28.2352 17.5128 25.8842 18.2675C24.8592 18.5971 23.7631 18.6371 22.7167 18.3832C21.6704 18.1293 20.7146 17.5913 19.9547 16.8286L16.4471 13.3213C17.6233 11.38 17.9886 9.05392 17.464 6.84557C17.061 5.15813 16.1753 3.62454 14.9152 2.432C13.655 1.23947 12.0749 0.439596 10.3678 0.13003Z" fill="white"/>
</svg>
