<svg width="73" height="62" viewBox="0 0 73 62" fill="none" xmlns="http://www.w3.org/2000/svg">
<path fill-rule="evenodd" clip-rule="evenodd" d="M69.7619 0C70.5937 0 71.2472 0.237639 71.6779 0.698065C72.1383 1.17334 72.3314 1.8417 72.2869 2.70315L72.0938 6.81727L72.0752 7.19962C71.9477 9.81856 71.8209 12.4246 71.7076 15.0307C71.6779 15.6693 71.5591 16.4862 70.9204 17.1249C70.7422 17.3031 70.5343 17.4516 70.2966 17.5853C69.9402 17.7784 69.5986 17.8675 69.257 17.8675C68.4401 17.8675 67.9054 17.3328 67.5192 16.9466L64.2665 13.7088L35.5122 42.4632C34.8141 43.1464 33.9081 43.5325 32.9279 43.5325C31.9476 43.5325 31.0268 43.1464 30.3436 42.4632L18.8923 31.0119L6.90639 42.9978C6.22318 43.681 5.31718 44.0672 4.33692 44.0672C3.35665 44.0672 2.4358 43.681 1.75259 42.9978L1.06938 42.3146C-0.356459 40.8888 -0.356459 38.5867 1.06938 37.1608L16.3228 21.9222C17.0061 21.239 17.9121 20.8528 18.8923 20.8528C19.8726 20.8528 20.7934 21.239 21.4766 21.9222L32.9279 33.3735L58.4147 7.8718C57.6721 7.14403 56.9294 6.40141 56.2017 5.65878L55.1471 4.58941C54.7313 4.17354 53.855 3.29724 54.4788 1.94567C54.5976 1.67833 54.7461 1.45554 54.9392 1.26246C55.5371 0.664566 56.2925 0.625073 56.8539 0.59572L56.8849 0.594098C58.9939 0.497557 61.0993 0.397303 63.2046 0.297049C65.3099 0.196795 67.4153 0.096541 69.5243 0H69.7619ZM64.2665 19.828L53.4688 30.6257V60.093C53.4688 60.8059 54.0481 61.4 54.7758 61.4H63.8358C64.5487 61.4 65.1428 60.8208 65.1428 60.093V20.6449C64.9381 20.4708 64.7686 20.3109 64.6295 20.1797C64.5669 20.1206 64.5104 20.0672 64.4596 20.0211L64.2665 19.828ZM37.2796 60.093V46.5773C37.7401 46.2803 38.1708 45.9386 38.5718 45.5376L48.9537 35.1558V60.093C48.9537 60.8208 48.3596 61.4 47.6467 61.4H38.5867C37.8589 61.4 37.2796 60.8059 37.2796 60.093ZM21.0905 39.3293V60.093C21.0905 60.8059 21.6697 61.4 22.3975 61.4H31.4575C32.1704 61.4 32.7645 60.8208 32.7645 60.093V47.8695C30.7 47.8249 28.7692 47.008 27.3137 45.5525L21.0905 39.3293ZM4.90131 48.3744V60.093C4.90131 60.8059 5.48055 61.4 6.20832 61.4H15.2683C15.9812 61.4 16.5753 60.8208 16.5753 60.093V39.4778L9.9957 46.0575C8.59957 47.4387 6.81727 48.2408 4.90131 48.3744Z" fill="url(#paint0_linear_11_167)"/>
<defs>
<linearGradient id="paint0_linear_11_167" x1="36.1466" y1="-52.0151" x2="36.1466" y2="85.0154" gradientUnits="userSpaceOnUse">
<stop stop-color="#50E783"/>
<stop offset="1" stop-color="#79ADEA"/>
</linearGradient>
</defs>
</svg>
