<svg width="60" height="60" viewBox="0 0 60 60" fill="none" xmlns="http://www.w3.org/2000/svg">
<path fill-rule="evenodd" clip-rule="evenodd" d="M49.3359 0H52.8516V3.51562H56.3672V17.6953H52.8516V21.2109H49.3359V17.6953H45.8203V3.51562H49.3359V0ZM38.7891 24.7266V21.2109H42.3047V7.14844H38.7891V3.63281H35.2734V7.14844H31.7578V21.2109H35.2734V24.7266H38.7891ZM24.7266 24.7266V28.2422H21.2109V24.7266H17.6953V10.6641H21.2109V7.14844H24.7266V10.6641H28.2422V24.7266H24.7266ZM10.6641 31.7578V35.2734H7.14844V31.7578H3.63281V17.6953H7.14844V14.1797H10.6641V17.6953H14.1797V31.7578H10.6641ZM56.7534 34.3225L58.6468 26.2252L51.032 22.8795L49.6174 26.0964L52.4666 27.3487L43.6471 31.7578H29.5846L15.5221 38.7891H1.75781V42.3047H16.3529L30.4154 35.2735H44.4779L54.038 30.4942L53.3305 33.5226L56.7534 34.3225ZM45.8203 38.7891H56.4844V56.4844H60V60H0V56.4844H3.51562V45.8203H14.1797V56.4844H17.6953V46.4916L28.2422 41.2181V56.4844H31.7578V38.7891H42.3047V56.4844H45.8203V38.7891Z" fill="white"/>
</svg>
