<svg width="22" height="21" viewBox="0 0 22 21" fill="none" xmlns="http://www.w3.org/2000/svg">
<path d="M4.617 2.33427C4.61679 2.79867 4.47947 3.25245 4.22262 3.63751C3.96576 4.02258 3.60105 4.32141 3.17518 4.49576C2.74931 4.67011 2.28164 4.71205 1.83205 4.6162C1.38246 4.52035 0.971398 4.29108 0.651479 3.95774C0.33156 3.62439 0.117341 3.20214 0.0362427 2.74503C-0.0448555 2.28791 0.0108569 1.81674 0.196249 1.39182C0.38164 0.966891 0.688276 0.60755 1.07691 0.359789C1.46554 0.112027 1.91848 -0.0128815 2.37776 0.00105054C2.97792 0.0192565 3.54746 0.273091 3.96552 0.708696C4.38358 1.1443 4.61727 1.7274 4.617 2.33427ZM4.68625 6.39406H0.0692561V21H4.68625V6.39406ZM11.9811 6.39406H7.3872V21H11.9349V13.3354C11.9349 9.0656 17.4407 8.66895 17.4407 13.3354V21H22V11.7488C22 4.55082 13.851 4.81914 11.9349 8.35397L11.9811 6.39406Z" fill="#959DA5"/>
</svg>
