<svg width="172" height="28" viewBox="0 0 172 28" fill="none" xmlns="http://www.w3.org/2000/svg">
<path d="M0.98 27V1.62H14.48L16.784 25.308H18.476L20.78 1.62H34.28V27H27.404V7.488L28.7 3.312H27.044L24.272 27H10.988L8.216 3.312H6.524L7.856 7.488V27H0.98ZM46.9863 21.312C49.8303 21.312 51.6663 20.232 51.6663 15.012V8.712H58.5783V27H51.6663V25.164L52.9983 21.456H51.3063C50.6223 24.696 48.3543 27.36 44.4663 27.36C39.6063 27.36 36.6903 24.012 36.6903 18.108V8.712H43.5663V16.992C43.5663 20.124 44.3583 21.312 46.9863 21.312ZM81.9865 27H75.1105V26.496L76.4425 22.752H74.7505C73.7785 25.02 72.3385 27.36 67.6945 27.36C62.3305 27.36 59.9905 22.896 59.9905 17.82C59.9905 12.78 62.3305 8.352 67.6945 8.352C72.3385 8.352 73.7785 10.692 74.7505 12.924H76.4425L75.1105 9.216V0.539999H81.9865V27ZM75.1105 17.82C75.1105 15.408 73.9585 14.4 71.0785 14.4C68.1625 14.4 66.8665 15.408 66.8665 17.82C66.8665 20.232 68.1625 21.312 71.0785 21.312C73.9585 21.312 75.1105 20.268 75.1105 17.82ZM84.5113 27V11.7C84.5113 9.576 85.7353 8.424 87.8593 8.424L100.567 8.712V14.76L91.3873 14.58V27H84.5113ZM100.983 22.032C100.983 18.792 102.855 16.884 108.759 16.308L113.943 15.732C113.979 14.508 113.151 13.932 110.883 13.932C108.723 13.932 107.859 14.796 107.859 15.768H101.451C101.451 10.8 105.807 8.352 110.883 8.352C115.887 8.352 120.855 10.404 120.855 16.848V20.952H123.483V27H119.091C117.219 27 116.103 25.956 116.103 24.048L117.183 21.78H115.527C114.879 24.804 113.187 27.36 107.895 27.36C101.991 27.36 100.983 23.904 100.983 22.032ZM107.715 20.844C107.715 21.672 108.759 21.78 109.731 21.78C111.963 21.78 113.943 20.772 113.943 19.008L110.055 19.656C108.579 19.908 107.715 19.98 107.715 20.844ZM136.743 14.4C133.935 14.4 132.063 15.48 132.063 20.7V27H125.187V8.712H132.063V10.548L130.731 14.256H132.423C133.143 11.016 135.375 8.352 139.263 8.352C144.123 8.352 147.075 11.664 147.075 17.604V27H140.163V18.72C140.163 15.552 139.407 14.4 136.743 14.4ZM164.139 27L160.215 20.52L156.075 22.32V27H149.199V0.539999H156.075V15.228L164.067 11.88L164.103 8.712H171.015L170.871 12.924C170.835 14.868 170.115 16.092 168.279 16.956L166.191 17.892L171.951 27H164.139Z" fill="#85FFFF"/>
</svg>
