<svg width="18" height="21" viewBox="0 0 18 21" fill="none" xmlns="http://www.w3.org/2000/svg">
<path d="M9.45361 0.0174998C10.5845 0 11.7067 0.00874989 12.829 0C12.8981 1.33873 13.3729 2.70372 14.3397 3.6487C15.3066 4.61994 16.6706 5.06619 18 5.21493V8.74114C16.7569 8.69739 15.5051 8.43489 14.3743 7.8924C13.8822 7.6649 13.4247 7.37616 12.9758 7.07866C12.9671 9.63363 12.9844 12.1886 12.9585 14.7348C12.8894 15.9598 12.4923 17.176 11.7931 18.1823C10.6622 19.8623 8.70256 20.956 6.69114 20.991C5.45666 21.061 4.22218 20.7197 3.16899 20.0897C1.42518 19.0485 0.199331 17.141 0.0180438 15.0936C0.000778407 14.6561 -0.00785431 14.2186 0.00941114 13.7898C0.1648 12.1273 0.976276 10.5349 2.23665 9.44988C3.66968 8.1899 5.67248 7.58615 7.54578 7.9449C7.56304 9.23988 7.51124 10.5349 7.51124 11.8299C6.65661 11.5499 5.65521 11.6286 4.90416 12.1536C4.3603 12.5123 3.94593 13.0636 3.73011 13.6848C3.54883 14.1311 3.60062 14.6211 3.60926 15.0936C3.81644 16.5285 5.18041 17.736 6.63071 17.6048C7.59757 17.596 8.52127 17.0273 9.02197 16.196C9.18599 15.9073 9.36728 15.6098 9.37591 15.2686C9.46224 13.7023 9.42771 12.1448 9.43634 10.5786C9.44497 7.05241 9.42771 3.53496 9.45361 0.0174998Z" fill="#959DA5"/>
</svg>
