<svg width="26" height="21" viewBox="0 0 26 21" fill="none" xmlns="http://www.w3.org/2000/svg">
<path d="M26 2.48465C25.0283 2.9152 23.996 3.19554 22.9389 3.31596C24.0543 2.65644 24.8892 1.61518 25.287 0.387509C24.237 1.00341 23.0895 1.43782 21.8932 1.67225C21.1615 0.897693 20.2123 0.359577 19.1689 0.127731C18.1256 -0.104115 17.0362 -0.0189873 16.0421 0.372067C15.048 0.763121 14.1952 1.44205 13.5942 2.32074C12.9933 3.19944 12.672 4.23733 12.672 5.29974C12.6708 5.70701 12.7187 6.11295 12.8146 6.50891C10.6936 6.4021 8.61873 5.85422 6.72413 4.90067C4.82953 3.94712 3.15737 2.60914 1.81572 0.973199C1.1332 2.14019 0.924318 3.52194 1.23168 4.8367C1.53905 6.15146 2.3395 7.30021 3.46984 8.0487C2.62353 8.02203 1.79579 7.79535 1.05521 7.38744V7.45357C1.05519 8.67717 1.48119 9.8631 2.26093 10.8101C3.04067 11.7571 4.12612 12.4069 5.33309 12.6492C4.87478 12.7747 4.40154 12.8383 3.92614 12.8381C3.58815 12.8352 3.25103 12.8036 2.91846 12.7437C3.25947 13.7967 3.92273 14.7176 4.81572 15.3781C5.7087 16.0385 6.78687 16.4055 7.89982 16.4278C6.00876 17.8992 3.67561 18.6975 1.27386 18.695C0.848145 18.6937 0.42285 18.6684 0 18.6195C2.43873 20.1763 5.27688 21.0027 8.1755 21C17.9861 21 23.3477 12.9231 23.3477 5.92322C23.3477 5.6965 23.3382 5.46033 23.3287 5.23362C24.3766 4.48248 25.2812 3.55157 26 2.48465Z" fill="#959DA5"/>
</svg>
