<svg width="27" height="19" viewBox="0 0 27 19" fill="none" xmlns="http://www.w3.org/2000/svg">
<path d="M26.4338 2.97972C26.2851 2.41108 25.9883 1.89117 25.573 1.47213C25.1578 1.05309 24.6387 0.749645 24.0679 0.592207C21.9555 0.00580154 13.4919 0.00580154 13.4919 0.00580154C9.96272 -0.0362469 6.43456 0.150311 2.92993 0.564283C2.35891 0.733228 1.84072 1.04367 1.42431 1.46629C1.00789 1.88891 0.706978 2.40978 0.549977 2.97972C0.171348 5.13258 -0.0124572 7.31469 0.000755438 9.49999C-0.0133633 11.6853 0.170448 13.8675 0.549977 16.0203C0.703747 16.5887 1.00401 17.1077 1.42127 17.5263C1.83854 17.9449 2.35845 18.2486 2.92993 18.4078C5.07049 18.9942 13.4919 18.9942 13.4919 18.9942C17.0257 19.0363 20.5586 18.8497 24.0679 18.4357C24.6387 18.2783 25.1578 17.9748 25.573 17.5558C25.9883 17.1367 26.2851 16.6168 26.4338 16.0482C26.822 13.8964 27.0106 11.7138 26.9971 9.52792C27.0262 7.33216 26.8375 5.13888 26.4338 2.97972ZM10.8021 13.5629V5.43704L17.8434 9.49999L10.8021 13.5629Z" fill="#959DA5"/>
</svg>
